<?xml version="1.0" standalone="no"?>
<!DOCTYPE svg PUBLIC "-//W3C//DTD SVG 20010904//EN"
 "http://www.w3.org/TR/2001/REC-SVG-20010904/DTD/svg10.dtd">
<svg version="1.0" xmlns="http://www.w3.org/2000/svg"
 width="500.000000pt" height="500.000000pt" viewBox="0 0 500.000000 500.000000"
 preserveAspectRatio="xMidYMid meet">

<g transform="translate(0.000000,500.000000) scale(0.100000,-0.100000)"
fill="#692321" stroke="none">
<path d="M2305 4990 c-400 -27 -842 -180 -1190 -413 -294 -196 -567 -479 -744
-772 -55 -91 -173 -331 -207 -420 -180 -482 -210 -1010 -85 -1498 33 -126 62
-221 72 -232 5 -5 9 -15 9 -23 0 -36 157 -350 243 -486 37 -60 158 -220 211
-281 400 -457 940 -750 1539 -836 198 -29 497 -29 694 0 362 52 669 166 1008
374 11 7 69 48 130 93 189 138 375 324 522 521 46 61 83 114 83 117 0 3 13 24
29 48 44 67 133 234 173 328 81 190 152 440 184 655 23 155 23 520 0 670 -130
844 -621 1526 -1371 1903 -218 110 -511 201 -757 236 -132 18 -389 26 -543 16z
m-1265 -2011 l0 -242 132 7 c73 4 133 8 134 9 1 1 5 102 9 224 l8 223 31 4
c17 3 79 8 137 11 l106 7 6 -144 c4 -78 10 -337 13 -574 l7 -432 -44 5 c-24 2
-98 8 -164 11 l-120 7 4 217 4 217 -127 3 -127 3 3 -203 3 -203 -35 -9 c-19
-5 -60 -14 -90 -21 -30 -6 -88 -20 -128 -31 -41 -11 -75 -18 -77 -16 -4 4 27
1142 31 1147 4 5 155 17 232 20 l52 1 0 -241z m1950 -69 c0 -34 2 -35 33 -15
41 26 147 48 207 41 60 -7 145 -32 173 -51 16 -11 10 -22 -73 -124 -50 -61
-95 -111 -100 -111 -5 0 -16 13 -25 30 -20 40 -75 56 -133 41 -72 -20 -73 -29
-66 -337 l7 -267 -37 7 c-20 4 -93 15 -161 25 -69 10 -127 20 -130 22 -5 6 15
692 20 697 5 6 248 70 268 71 13 1 17 -7 17 -29z m-656 -39 c138 -71 225 -216
226 -378 0 -59 10 -53 -130 -78 -113 -20 -296 -54 -328 -62 -18 -4 -20 -8 -10
-20 39 -47 149 -62 211 -28 l35 18 53 -42 c30 -24 54 -46 54 -50 0 -16 -76
-73 -131 -98 -53 -25 -70 -28 -164 -28 -98 0 -109 3 -170 33 -106 53 -172 127
-211 237 -55 154 -10 324 116 437 84 75 154 98 281 95 92 -2 107 -5 168 -36z
m1797 33 l74 -7 43 -74 43 -74 -74 -82 c-41 -45 -136 -147 -210 -227 -74 -80
-134 -146 -134 -147 1 -1 79 5 172 13 94 7 175 14 181 14 6 0 21 -37 33 -82
12 -46 24 -91 27 -100 5 -17 -17 -18 -370 -18 -206 0 -377 4 -380 8 -2 4 -6
39 -7 77 l-3 70 139 183 c77 100 155 203 174 228 l34 46 -180 -7 -180 -7 18
93 c9 52 17 95 18 97 2 5 513 2 582 -4z"/>
<path d="M2175 2651 c-42 -10 -65 -24 -98 -58 -30 -32 -53 -93 -35 -93 6 0 78
21 159 47 123 38 147 49 137 60 -29 35 -110 57 -163 44z"/>
</g>
</svg>
